HIERARCHY
ROOT Hips
{
	OFFSET 0.00000 0.00000 0.00000
	CHANNELS 6 Xposition Yposition Zposition Zrotation Yrotation Xrotation 
	JOINT LHipJoint
	{
		OFFSET 0 0 0
		CHANNELS 3 Zrotation Yrotation Xrotation
		JOINT LeftHip
		{
			OFFSET 1.62964 -1.40469 0.78906
			CHANNELS 3 Zrotation Yrotation Xrotation
			JOINT LeftKnee
			{
				OFFSET 2.29640 -6.30932 0.00000
				CHANNELS 3 Zrotation Yrotation Xrotation
				JOINT LeftAnkle
				{
					OFFSET 2.29451 -6.30412 0.00000
					CHANNELS 3 Zrotation Yrotation Xrotation
					JOINT LeftToe
					{
						OFFSET 0.03611 -0.09921 1.56387
						CHANNELS 3 Zrotation Yrotation Xrotation
						End Site
						{
							OFFSET 0.00000 -0.00000 0.80291
						}
					}
				}
			}
		}
	}
	JOINT RHipJoint
	{
		OFFSET 0 0 0
		CHANNELS 3 Zrotation Yrotation Xrotation
		JOINT RightHip
		{
			OFFSET -1.73712 -1.40469 0.78906
			CHANNELS 3 Zrotation Yrotation Xrotation
			JOINT RightKnee
			{
				OFFSET -2.28137 -6.26801 0.00000
				CHANNELS 3 Zrotation Yrotation Xrotation
				JOINT RightAnkle
				{
					OFFSET -2.28681 -6.28298 0.00000
					CHANNELS 3 Zrotation Yrotation Xrotation
					JOINT RightToe
					{
						OFFSET -0.15927 -0.43759 1.61103
						CHANNELS 3 Zrotation Yrotation Xrotation
						End Site
						{
							OFFSET -0.00000 -0.00000 0.84630
						}
					}
				}
			}
		}
	}
	JOINT lowerback
	{
		OFFSET 0 0 0
		CHANNELS 3 Zrotation Yrotation Xrotation
		JOINT Chest
		{
			OFFSET -0.04227 2.04338 -0.00225
			CHANNELS 3 Zrotation Yrotation Xrotation
			JOINT Chest2
			{
				OFFSET -0.02148 2.04482 -0.04273
				CHANNELS 3 Zrotation Yrotation Xrotation
				JOINT lowerneck
				{
					OFFSET 0 0 0
					CHANNELS 3 Zrotation Yrotation Xrotation
					JOINT Neck
					{
						OFFSET 0.09180 1.44629 0.19359
						CHANNELS 3 Zrotation Yrotation Xrotation
						JOINT Head
						{
							OFFSET 0.00887 1.40645 0.14750
							CHANNELS 3 Zrotation Yrotation Xrotation
							End Site
							{
								OFFSET -0.00669 1.50671 0.03707
							}
						}
					}
				}
				JOINT LeftCollar
				{
					OFFSET 0 0 0
					CHANNELS 3 Zrotation Yrotation Xrotation
					JOINT LeftShoulder
					{
						OFFSET 2.17674 1.86763 -0.06520
CHANNELS 3 Zrotation Xrotation Yrotation
						JOINT LeftElbow
						{
OFFSET 0 -4.657760 0.000000
CHANNELS 3 Zrotation Xrotation Yrotation
							JOINT LeftWrist
							{
OFFSET 0 -3.555390 0.000000
CHANNELS 3 Zrotation Xrotation Yrotation
								JOINT lhand
								{
									OFFSET 0 0 0
CHANNELS 3 Zrotation Xrotation Yrotation
									JOINT LFingers
									{
OFFSET 0 -0.707260 0.000000
CHANNELS 3 Zrotation Xrotation Yrotation
										End Site
										{
OFFSET 0 -0.570220 0.000000
										}
									}
								}
								JOINT LThumb
								{
OFFSET 0 0.000000 0.000000
CHANNELS 3 Zrotation Xrotation Yrotation
									End Site
									{
OFFSET 0 -0.578920 0.578920
									}
								}
							}
						}
					}
				}
				JOINT RightCollar
				{
					OFFSET 0 0 0
					CHANNELS 3 Zrotation Yrotation Xrotation
					JOINT RightShoulder
					{
						OFFSET -2.80694 1.55459 -0.32496
CHANNELS 3 Zrotation Xrotation Yrotation
						JOINT RightElbow
						{
OFFSET 0 -4.719250 -0.000000
CHANNELS 3 Zrotation Xrotation Yrotation
							JOINT RightWrist
							{
OFFSET 0 -3.569900 0.000000
CHANNELS 3 Zrotation Xrotation Yrotation
								JOINT rhand
								{
									OFFSET 0 0 0
CHANNELS 3 Zrotation Xrotation Yrotation
									JOINT RFingers
									{
OFFSET 0 -0.507760 0.000000
CHANNELS 3 Zrotation Xrotation Yrotation
										End Site
										{
OFFSET 0 -0.409370 0.000000
										}
									}
								}
								JOINT RThumb
								{
OFFSET 0 0.000000 0.000000
CHANNELS 3 Zrotation Xrotation Yrotation
									End Site
									{
OFFSET 0 -0.415620 0.415620
									}
								}
							}
						}
					}
				}
			}
		}
	}
}
MOTION
Frames: 5
Frame Time: 0.008333333333333333
10.228454 14.579931 17.819196 -213.043170 81.775533 166.988770 0.000000 0.000000 0.000000 -15.990881 -18.928729 -40.016670 9.355862 17.028504 57.308623 2.075246 -13.508049 -26.253120 0.669516 -3.796573 -10.821271 0.000000 0.000000 0.000000 11.298543 20.792160 -41.192301 -9.252683 -16.953280 56.938421 -4.762897 -2.583427 -42.331209 -2.624232 10.057761 -29.166383 -3.857517 -0.068078 -19.372530 -1.052366 1.009180 -2.448131 1.331033 0.462701 8.156287 -18.672600 -4.691722 6.563213 29.070471 -2.880540 -20.875592 13.897822 -2.003220 -6.170466 0.000000 0.000000 0.000000 32.239830 19.613626 -26.038458 14.431390 -23.347924 2.997065 24.223188 -13.269722 23.349735 0.000000 0.000000 0.000000 -7.125000 0.000000 0.000000 -3.036725 4.682157 -2.791017 0.000000 0.000000 0.000000 -7.530229 -2.668335 15.125593 -14.101489 -22.879006 -2.867779 -5.322991 16.476245 51.770878 0.000000 0.000000 0.000000 7.125000 0.000000 0.000000 66.084417 72.830626 -48.826411
10.190623 14.460436 17.836541 -208.355811 80.925729 172.097731 0.000000 0.000000 0.000000 -15.096815 -19.779778 -41.480370 9.947157 17.371718 59.300175 2.249102 -14.264708 -27.295257 0.523656 -4.231064 -11.789296 0.000000 0.000000 0.000000 10.999540 21.814980 -43.825851 -10.451336 -17.624789 60.945808 -4.780341 -3.808846 -42.821377 -2.789284 10.343292 -30.098216 -3.689224 0.066766 -19.210563 -1.173512 1.157637 -2.519083 1.140070 0.547727 7.990115 -18.275064 -5.072671 6.815094 29.087985 -3.252298 -21.538113 13.890889 -2.223595 -6.323844 0.000000 0.000000 0.000000 31.366329 18.682116 -25.554378 14.336177 -23.213179 2.959390 23.945484 -12.821736 23.590675 0.000000 0.000000 0.000000 -7.125000 0.000000 0.000000 -3.237822 4.475369 -2.980246 0.000000 0.000000 0.000000 -6.919544 -2.906163 14.709331 -13.786338 -22.427472 -2.746697 -5.755764 17.830271 51.762715 0.000000 0.000000 0.000000 7.125000 0.000000 0.000000 65.803870 72.984830 -48.751640
10.148578 14.350889 17.854195 -204.894888 79.980772 175.859676 0.000000 0.000000 0.000000 -14.080970 -21.166525 -43.015113 10.626095 17.739345 61.551413 2.175546 -15.482854 -27.231909 1.151391 -3.103236 -8.542479 0.000000 0.000000 0.000000 10.624740 22.518761 -46.341156 -11.652834 -18.227165 64.870038 -4.734642 -4.906970 -43.021585 -3.040397 10.746492 -31.444219 -3.613510 0.214021 -18.897143 -1.346165 1.336551 -2.531179 0.951542 0.643526 7.803840 -17.828275 -5.492585 7.001591 29.103061 -3.658076 -22.204207 13.868813 -2.459340 -6.459178 0.000000 0.000000 0.000000 30.599307 17.624993 -25.499073 14.243806 -23.082080 2.923078 24.049312 -12.621186 23.330859 0.000000 0.000000 0.000000 -7.125000 0.000000 0.000000 -3.143631 4.730974 -2.878673 0.000000 0.000000 0.000000 -6.243003 -3.196190 14.118395 -13.492995 -22.004955 -2.635421 -6.040076 19.207420 51.863520 0.000000 0.000000 0.000000 7.125000 0.000000 0.000000 65.953417 73.123322 -49.043848
10.099829 14.255285 17.875493 -203.143043 78.845960 177.641947 0.000000 0.000000 0.000000 -12.750758 -23.833575 -44.518278 11.437853 18.137042 64.188578 1.330185 -20.721755 -23.752492 2.061187 7.296610 21.053150 0.000000 0.000000 0.000000 10.230896 22.582926 -48.289619 -12.742548 -18.677872 68.314093 -4.597658 -6.126838 -42.902519 -3.539176 11.510988 -34.034867 -3.773414 0.285150 -18.250360 -1.556711 1.444731 -2.418131 0.832679 0.694776 7.571996 -17.406845 -5.941939 7.038508 29.146266 -4.084306 -22.841930 13.852519 -2.695376 -6.551470 0.000000 0.000000 0.000000 29.798570 16.439810 -25.633622 14.119128 -22.904732 2.874329 24.383657 -12.658441 22.939922 0.000000 0.000000 0.000000 -7.125000 0.000000 0.000000 -2.891503 5.083304 -2.627763 0.000000 0.000000 0.000000 -5.561264 -3.604706 13.511233 -13.248914 -21.650597 -2.544550 -6.038927 20.418228 52.286707 0.000000 0.000000 0.000000 7.125000 0.000000 0.000000 67.278964 73.271191 -50.399347
10.052763 14.164835 17.899667 -202.248461 77.763290 178.520294 0.000000 0.000000 0.000000 -12.460763 -25.190805 -46.312750 12.256718 18.485583 66.787927 1.927574 -13.933324 -26.271143 4.452039 -3.713612 -12.782974 0.000000 0.000000 0.000000 9.810304 22.208476 -50.033152 -13.638998 -18.989625 71.088887 -4.402186 -6.904186 -42.369472 -3.922170 12.047714 -35.912522 -4.056970 0.256228 -17.636619 -1.691785 1.435933 -2.254352 0.837522 0.682112 7.411229 -17.151822 -6.294444 6.998759 29.158924 -4.407231 -23.428488 13.851416 -2.861962 -6.639854 0.000000 0.000000 0.000000 28.720742 15.305900 -25.438777 13.902484 -22.594617 2.790856 24.322793 -12.447686 23.068660 0.000000 0.000000 0.000000 -7.125000 0.000000 0.000000 -2.944083 4.957954 -2.682536 0.000000 0.000000 0.000000 -5.207076 -3.956848 13.936909 -13.058167 -21.372036 -2.474622 -6.459355 21.139583 52.642833 0.000000 0.000000 0.000000 7.125000 0.000000 0.000000 68.204202 73.542007 -51.543895
